<svg id="folder" xmlns="http://www.w3.org/2000/svg" width="1076.976" height="923.273" viewBox="0 0 1076.976 923.273">
  <path id="Trazado_242" data-name="Trazado 242" d="M696.093,223.05a224.907,224.907,0,0,1-157.947-64.7L476.324,97.407a74.968,74.968,0,0,0-52.55-21.557H150.132c-40.611,0-73.735,32.109-74.5,72.207l3.411,74.993H4.536l-3.411-73.6c0-81.3,66.713-147.2,149.007-147.2H423.708A149.938,149.938,0,0,1,529.04,45.4l61.689,60.941A149.94,149.94,0,0,0,696.093,149.45Z" transform="translate(21.97 -2.25)" fill="#d0740b"/>
  <path id="Trazado_243" data-name="Trazado 243" d="M939.5,77.3H138.335a68.247,68.247,0,0,0-50.912,22.97A71.585,71.585,0,0,0,69.664,154.22l43.911,493.865c3.216,36.328,32.963,64.157,68.61,64.187h713.46c35.646-.03,65.393-27.859,68.61-64.187l43.911-493.865A71.587,71.587,0,0,0,990.4,100.268,68.244,68.244,0,0,0,939.5,77.3ZM138.335,6.75A136.5,136.5,0,0,0,36.5,52.7,143.169,143.169,0,0,0,.993,160.616L44.9,654.481C51.354,727.148,110.88,782.8,182.185,782.823h713.46c71.305-.025,130.831-55.675,137.281-128.342l43.911-493.865a143.176,143.176,0,0,0-35.514-107.924A136.487,136.487,0,0,0,939.5,6.75Z" transform="translate(-0.428 140.45)" fill="#d0740b" fill-rule="evenodd"/>
</svg>
