<svg xmlns="http://www.w3.org/2000/svg" width="934.632" height="923.274" viewBox="0 0 934.632 923.274">
  <path id="pencil" d="M16.073,909.929l.168.166a49.329,49.329,0,0,0,34.742,14.3,50.223,50.223,0,0,0,16-2.634l280.209-93.9L884.874,296.7a171.669,171.669,0,0,0-.026-244.876c-68.459-67.614-179.441-67.6-247.885.028L99.28,583.024,4.23,859.835a48.016,48.016,0,0,0,11.843,50.122ZM681.614,95.965C725.4,52.7,796.408,52.7,840.2,95.962a109.832,109.832,0,0,1,0,156.666l-70.693,69.858L610.9,165.8ZM154.339,616.846,566.247,209.905,724.831,366.566,312.923,773.479,72.928,853.9Z" transform="translate(-1.569 -1.126)" fill="#d0740b"/>
</svg>
